<svg xmlns="http://www.w3.org/2000/svg" width="112" height="153" viewBox="0 0 112 153" fill="none">
<path d="M96.7938 75.242C96.4284 75.2381 96.0638 75.2765 95.7072 75.3563C64.4637 85.307 73.0037 102.559 84.5937 102.559C91.1703 102.559 98.7381 96.8398 100.435 81.1323C100.987 76.3095 98.6428 75.242 96.7938 75.242ZM95.65 80.5223C94.2966 93.1798 89.0353 97.6785 84.5556 97.6785C83.2867 97.7744 82.0238 97.4281 80.9813 96.6983C79.9388 95.9686 79.1811 94.9005 78.8369 93.6754C78.265 89.9963 83.2594 84.5063 95.6309 80.3316L95.65 80.5223Z" fill="#ffffff"/>
<path d="M16.1784 75.3563C15.8219 75.2765 15.4573 75.2381 15.0919 75.242C13.1856 75.242 10.9172 76.3095 11.5272 81.1323C13.2047 96.9351 20.7725 102.559 27.3491 102.559C38.8438 102.559 47.4219 85.307 16.1784 75.3563ZM33.0106 93.7898C32.6729 95.0187 31.9167 96.0911 30.8727 96.8219C29.8286 97.5528 28.5621 97.8962 27.2919 97.7929C22.8313 97.7929 17.5509 93.2751 16.1975 80.6366V80.3126C28.5881 84.6207 33.5825 90.1107 33.0106 93.7898Z" fill="#ffffff"/>
<path d="M83.0116 4.25308C65.3604 -1.08436 46.5252 -1.08436 28.8741 4.25308C20.8106 6.71215 13.6241 9.39996 12.1562 11.6303C8.24844 17.349 0.242188 57.6662 0.242188 78.044C0.242188 98.4218 2.14844 121.278 8.24844 128.636C9.22063 129.818 12.1562 130.809 16.4453 131.61V152.75H21.2109V132.353C32.7387 133.695 44.3375 134.331 55.9428 134.259C67.5859 134.323 79.2224 133.686 90.7891 132.353V152.75H95.5547V131.591C99.8438 130.79 102.684 129.875 103.656 128.636C109.718 121.278 111.758 98.4218 111.758 78.044C111.758 57.6662 103.656 17.2537 99.8438 11.6875C98.2044 9.39996 91.075 6.71215 83.0116 4.25308ZM15.9688 14.4706C16.4453 14.0512 19.095 12.2021 30.2466 8.75183C46.9873 3.66847 64.8602 3.66847 81.6009 8.75183C92.7716 12.1259 95.4022 13.975 95.8978 14.4706C97.4228 17.0059 100.225 27.9668 102.608 40.815C99.4244 48.8784 86.6525 75.1275 55.9237 75.1275C25.195 75.1275 12.5184 48.8403 9.35406 40.815C11.6797 27.9859 14.4628 16.9868 15.9688 14.4706ZM100.149 125.395C97.2703 127.092 81.9631 129.398 55.9428 129.398C29.9225 129.398 14.6344 127.092 11.7559 125.395C10.2881 123.489 5.00781 113.748 5.00781 78.044C5.26716 68.2893 6.24196 58.5667 7.92438 48.9546C13.8719 60.1253 28.3403 79.9503 56 79.9503C83.6597 79.9503 98.0519 60.1443 104.057 48.9546C105.743 58.5666 106.724 68.289 106.992 78.044C106.992 101.434 104.304 119.924 100.149 125.395Z" fill="#ffffff"/>
<path d="M28.7406 55.5311C34.6119 63.1561 43.9906 67.083 57.0294 67.2164C62.6805 67.0454 68.2407 65.7493 73.385 63.4039C86.9194 56.8846 92.1997 42.0158 90.0838 18.6642C85.9044 17.3625 81.6525 16.306 77.35 15.4999H77.1594C72.9873 14.6187 68.7673 13.9822 64.5209 13.5936C61.6806 13.3649 58.8022 13.2505 56.0191 13.2505H55.6188C54.3034 13.2505 52.9691 13.2505 51.6538 13.2505C41.5236 13.6762 31.4963 15.4586 21.84 18.5499C21.1119 25.3766 21.2464 32.2679 22.2403 39.0611C23.0111 45.0044 25.2446 50.6635 28.7406 55.5311Z" fill="#ffffff"/>
</svg>